<?xml version="1.0" encoding="UTF-8"?><svg xmlns="http://www.w3.org/2000/svg" xmlns:xlink="http://www.w3.org/1999/xlink" width="64px" height="64px" viewBox="0 0 64 64" version="1.1"><title>selftimer</title><defs><path id="path-1" d="M.06 64V.04H64V64z"/></defs><g id="Page-1" stroke="none" stroke-width="1" fill="none" fill-rule="evenodd"><g id="selftimer"><g id="Group-3"><mask id="mask-2" fill="#fff"><use xlink:href="#path-1"/></mask><path d="M64 32c0 17.673-14.327 32-32 32C14.327 64 0 49.673 0 32 0 14.327 14.327 0 32 0c17.673 0 32 14.327 32 32" id="Fill-1" fill="#76ABC4" mask="url(#mask-2)"/></g><path d="M32 56c-12.131 0-22-9.869-22-22 0-2.563.438-5.076 1.3-7.466a2 2 0 1 1 3.762 1.358A17.94 17.94 0 0 0 14 34c0 9.925 8.075 18 18 18s18-8.075 18-18c0-8.04-5.399-15.167-13.13-17.334a2 2 0 0 1 1.079-3.852C47.399 15.463 54 24.175 54 34c0 12.131-9.869 22-22 22" id="Fill-4" fill="#638DA0"/><path d="M28 19a4 4 0 1 1 0-8 4 4 0 0 1 0 8" id="Fill-5" fill="#638DA0"/><path d="M32 38a3.982 3.982 0 0 1-2.828-1.172c-1.896-1.895-14.868-18.732-14.868-18.732a1.37 1.37 0 0 1 .194-1.692 1.357 1.357 0 0 1 1.693-.195s15.804 12.129 18.637 14.963A4 4 0 0 1 32 38" id="Fill-6" fill="#638DA0"/><path d="M32 54c-12.131 0-22-9.869-22-22 0-2.563.438-5.076 1.3-7.466a2 2 0 1 1 3.762 1.358A17.94 17.94 0 0 0 14 32c0 9.925 8.075 18 18 18s18-8.075 18-18c0-8.04-5.399-15.167-13.13-17.334a2 2 0 0 1 1.079-3.852C47.399 13.463 54 22.175 54 32c0 12.131-9.869 22-22 22" id="Fill-7" fill="#4C5665"/><path d="M32 13a4 4 0 1 1-8 0 4 4 0 0 1 8 0" id="Fill-8" fill="#4C5665"/><path d="M34.828 29.172c-2.833-2.833-18.637-14.963-18.637-14.963a1.36 1.36 0 0 0-1.693.195 1.37 1.37 0 0 0-.194 1.692s12.972 16.837 14.868 18.732a4 4 0 1 0 5.656-5.656" id="Fill-9" fill="#4C5665"/></g></g><metadata><rdf:RDF xmlns:rdf="http://www.w3.org/1999/02/22-rdf-syntax-ns#" xmlns:rdfs="http://www.w3.org/2000/01/rdf-schema#" xmlns:dc="http://purl.org/dc/elements/1.1/"><rdf:Description about="https://iconscout.com/legal#licenses" dc:title="selftimer" dc:description="selftimer" dc:publisher="Iconscout" dc:date="2017-09-25" dc:format="image/svg+xml" dc:language="en"><dc:creator><rdf:Bag><rdf:li>Elegant Themes</rdf:li></rdf:Bag></dc:creator></rdf:Description></rdf:RDF></metadata></svg>