<?xml version="1.0" encoding="UTF-8"?><svg xmlns="http://www.w3.org/2000/svg" xmlns:xlink="http://www.w3.org/1999/xlink" version="1.1" id="Layer_1" x="0px" y="0px" viewBox="0 0 100 100" xml:space="preserve"><path fill="#A35BB4" d="M88 2H12C6.477 2 2 6.477 2 12v76c0 5.523 4.477 10 10 10h76c5.523 0 10-4.477 10-10V12c0-5.523-4.477-10-10-10z"/><g fill="#FFF"><path d="M63.36 26H31c-3.86 0-7 3.14-7 7v40a1 1 0 0 0 1 1h34a1 1 0 0 0 1-1V52l.002-4.435V33.002A8.983 8.983 0 0 1 63.361 26zM55 65h-24a1 1 0 0 1 0-2h24a1 1 0 0 1 0 2zm0-9h-24a1 1 0 0 1 0-2h24a1 1 0 0 1 0 2zm0-9h-24a1 1 0 0 1 0-2h24a1 1 0 0 1 0 2zm0-9h-24a1 1 0 0 1 0-2h24a1 1 0 0 1 0 2z"/><path d="M69.001 26.002c-3.86 0-7 3.14-7 7v19c0 .55.45 1 1 1h12c.55 0 1-.45 1-1v-19c0-3.86-3.14-7-7-7z"/></g><metadata><rdf:RDF xmlns:rdf="http://www.w3.org/1999/02/22-rdf-syntax-ns#" xmlns:rdfs="http://www.w3.org/2000/01/rdf-schema#" xmlns:dc="http://purl.org/dc/elements/1.1/"><rdf:Description about="https://iconscout.com/legal#licenses" dc:title="document,page,sheet,paper" dc:description="document,page,sheet,paper" dc:publisher="Iconscout" dc:date="2017-11-13" dc:format="image/svg+xml" dc:language="en"><dc:creator><rdf:Bag><rdf:li>Dinosoft Labs</rdf:li></rdf:Bag></dc:creator></rdf:Description></rdf:RDF></metadata></svg>